<svg width="183" height="203" viewBox="0 0 183 203" fill="none" xmlns="http://www.w3.org/2000/svg">
<g filter="url(#filter0_bd)">
<rect x="23" y="18" width="136.982" height="158" rx="8.90938" fill="url(#paint0_linear)"/>
<rect x="23.2784" y="18.2784" width="136.425" height="157.443" rx="8.63096" stroke="url(#paint1_linear)" stroke-width="0.556836"/>
</g>
<path d="M86.7673 95.4794C86.388 95.1018 85.8736 94.8897 85.3373 94.8897C84.8009 94.8897 84.2865 95.1018 83.9073 95.4794C83.528 95.857 83.3149 96.3691 83.3149 96.9031C83.3149 97.4371 83.528 97.9493 83.9073 98.3269L89.9496 104.343C90.1378 104.528 90.361 104.675 90.6064 104.775C90.8518 104.875 91.1145 104.926 91.3796 104.924C91.6553 104.915 91.9263 104.85 92.1758 104.733C92.4252 104.616 92.6478 104.449 92.8297 104.242L106.928 88.2004C107.254 87.798 107.411 87.286 107.367 86.7712C107.322 86.2564 107.08 85.7785 106.69 85.4372C106.301 85.0959 105.794 84.9174 105.275 84.9391C104.757 84.9607 104.267 85.1808 103.907 85.5535L91.3796 99.9912L86.7673 95.4794Z" fill="#0BA759"/>
<path d="M109.507 94.8977C108.973 94.8977 108.461 95.109 108.083 95.485C107.705 95.8611 107.493 96.3711 107.493 96.9029C107.493 101.158 105.795 105.238 102.774 108.246C99.7519 111.255 95.6535 112.945 91.3801 112.945C88.198 112.943 85.0876 112.004 82.4411 110.245C79.7946 108.486 77.7304 105.986 76.509 103.061C75.2875 100.135 74.9635 96.9151 75.5777 93.8066C76.1919 90.6981 77.7168 87.8402 79.9602 85.5934C81.452 84.0882 83.2304 82.8944 85.1913 82.0818C87.1522 81.2692 89.2562 80.8542 91.3801 80.861C92.6681 80.869 93.9513 81.017 95.2069 81.3022C95.4697 81.3831 95.7464 81.4096 96.0198 81.38C96.2932 81.3504 96.5577 81.2653 96.7969 81.1301C97.036 80.9948 97.2448 80.8122 97.4104 80.5936C97.576 80.3749 97.6948 80.1248 97.7596 79.8586C97.8244 79.5925 97.8337 79.3159 97.787 79.0461C97.7403 78.7762 97.6386 78.5187 97.4881 78.2895C97.3376 78.0602 97.1416 77.8641 96.9121 77.7132C96.6825 77.5623 96.4244 77.4598 96.1536 77.412C94.5889 77.0455 92.9875 76.8572 91.3801 76.8505C87.401 76.8711 83.5171 78.0647 80.2186 80.2808C76.9201 82.4968 74.3549 85.636 72.8466 89.3021C71.3384 92.9682 70.9547 96.997 71.7439 100.88C72.5332 104.763 74.4601 108.326 77.2814 111.12C81.021 114.845 86.0904 116.943 91.3801 116.955C96.7219 116.955 101.845 114.843 105.622 111.082C109.399 107.322 111.521 102.221 111.521 96.9029C111.521 96.3711 111.309 95.8611 110.931 95.485C110.554 95.109 110.041 94.8977 109.507 94.8977Z" fill="#0BA759"/>
<defs>
<filter id="filter0_bd" x="0.726559" y="-4.27344" width="181.529" height="207.002" filterUnits="userSpaceOnUse" color-interpolation-filters="sRGB">
<feFlood flood-opacity="0" result="BackgroundImageFix"/>
<feGaussianBlur in="BackgroundImage" stdDeviation="11.1367"/>
<feComposite in2="SourceAlpha" operator="in" result="effect1_backgroundBlur"/>
<feColorMatrix in="SourceAlpha" type="matrix" values="0 0 0 0 0 0 0 0 0 0 0 0 0 0 0 0 0 0 127 0"/>
<feOffset dy="4.45469"/>
<feGaussianBlur stdDeviation="11.1367"/>
<feColorMatrix type="matrix" values="0 0 0 0 0.0431373 0 0 0 0 0.654902 0 0 0 0 0.34902 0 0 0 0.1 0"/>
<feBlend mode="normal" in2="effect1_backgroundBlur" result="effect2_dropShadow"/>
<feBlend mode="normal" in="SourceGraphic" in2="effect2_dropShadow" result="shape"/>
</filter>
<linearGradient id="paint0_linear" x1="15.292" y1="11.3594" x2="96.4341" y2="173.527" gradientUnits="userSpaceOnUse">
<stop stop-color="white"/>
<stop offset="1" stop-color="white" stop-opacity="0.1"/>
</linearGradient>
<linearGradient id="paint1_linear" x1="91.4908" y1="18" x2="91.4908" y2="176" gradientUnits="userSpaceOnUse">
<stop stop-color="#0BA759"/>
<stop offset="1" stop-color="#0BA759" stop-opacity="0.17"/>
</linearGradient>
</defs>
</svg>
