<svg width="42" height="32" viewBox="0 0 42 32" fill="none" xmlns="http://www.w3.org/2000/svg">
<path d="M0 0H42V32H0V0Z" fill="#DE2910"/>
<path d="M5.03988 11.84L7.87485 3.2L10.7098 11.84L3.1499 6.56H12.5998L5.03988 11.84Z" fill="#FFDE00"/>
<path d="M17.336 3.36558L14.4185 4.02239L16.3646 1.71861L16.1737 4.81919L14.5547 2.07424L17.336 3.36558Z" fill="#FFDE00"/>
<path d="M20.2807 7.15649L17.3408 6.61238L20.0141 5.25569L18.6544 8.03838L18.2101 4.87038L20.2807 7.15649Z" fill="#FFDE00"/>
<path d="M19.8515 12.475L17.3857 10.7601L20.3712 10.629L18.0126 12.6063L18.8788 9.52969L19.8515 12.475Z" fill="#FFDE00"/>
<path d="M16.143 15.9494L14.5204 13.4001L17.3241 14.4505L14.3968 15.3491L16.3654 12.851L16.143 15.9494Z" fill="#FFDE00"/>
</svg>
