<svg width="502" height="502" viewBox="0 0 502 502" fill="none" xmlns="http://www.w3.org/2000/svg">
<path d="M154.61 20.0395C153.653 23.8799 150.099 31.5606 143.536 31.5606C135.332 31.5606 124.668 41.8148 127.129 42.6351C129.59 43.4555 123.848 50.0181 127.129 49.608C130.41 49.1978 141.075 36.0725 139.024 41.4046C136.973 46.7368 119.336 67.6553 124.668 62.3232C130 56.991 154.2 43.8656 151.739 42.6351C149.278 41.4046 159.123 30.3301 162.814 30.3301C166.506 30.3301 168.146 40.1741 164.044 41.4046C159.943 42.6351 174.298 40.1741 174.298 41.4046C174.298 42.6351 173.478 59.8622 176.76 59.8622C180.041 59.8622 152.56 74.218 150.099 69.296C147.638 64.374 136.973 82.8316 143.536 81.6009C150.099 80.3703 154.61 77.0892 154.61 79.9601C154.61 82.8316 134.102 90.625 133.282 89.8045C132.626 89.1477 135.196 85.9761 136.563 84.4725C132.735 85.0192 124.505 87.0152 122.208 90.625C119.336 95.1366 103.34 105.801 100.058 105.801C96.7772 105.801 91.0349 123.028 81.6007 123.028C72.1669 123.028 63.5534 159.533 59.4517 159.123C55.3501 158.713 63.1432 144.767 62.7331 139.845C62.3229 134.923 57.8111 140.665 57.8111 137.384C57.8111 134.103 51.2484 138.614 48.7874 137.384C46.8186 136.4 46.0529 133.692 45.9162 132.462C40.1739 139.571 28.6072 155.021 28.279 159.943C27.8689 166.096 20.4859 182.912 24.5875 182.092C28.6892 181.271 29.9197 182.092 30.74 180.451C31.5604 178.811 34.4315 170.607 36.8925 170.607C39.3535 170.607 41.8145 169.787 39.3535 175.939C36.8925 182.092 28.6892 194.807 31.5604 195.628C34.4315 196.448 40.1739 196.858 40.1739 202.6C40.1739 208.343 34.8417 218.597 36.0722 222.289C37.3027 225.98 39.7637 232.132 41.8145 231.312C43.8654 230.491 45.5061 228.031 48.3772 230.081C51.2484 232.132 50.8382 237.054 52.8891 234.594C54.9399 232.132 54.5297 225.159 58.2212 224.749C61.9127 224.339 65.1941 218.597 68.4754 219.417C71.7568 220.238 63.9636 225.98 66.8347 226.39C69.7059 226.8 71.7568 221.058 73.3974 221.468C75.0381 221.878 72.9873 225.98 75.8584 225.98C78.7296 225.98 75.4483 230.081 78.3194 230.081C81.1905 230.081 92.675 220.648 100.058 230.081C107.441 239.515 108.672 256.332 118.105 256.332C127.54 256.332 139.845 261.664 142.715 266.996C145.587 272.329 146.818 276.841 150.919 279.301C155.02 281.762 150.919 288.735 155.02 290.786C159.123 292.837 163.224 294.478 171.838 299.81C180.451 305.142 180.041 302.271 185.783 302.681C191.526 303.091 195.217 303.502 199.318 308.834C203.421 314.166 207.522 316.627 211.213 314.986C214.905 313.345 218.596 328.932 211.623 335.904C204.651 342.877 195.627 346.979 196.448 353.132C197.268 359.284 199.729 373.64 192.756 381.433C185.783 389.226 178.811 390.047 168.556 394.148C158.302 398.25 167.325 403.172 162.814 409.325C158.302 415.477 152.15 420.809 146.407 423.27C140.665 425.731 147.638 436.805 145.587 438.036C143.536 439.267 135.332 433.935 134.513 435.985C133.692 438.036 138.614 446.65 134.513 447.47C130.41 448.29 131.231 441.728 129.59 443.368C127.95 445.009 119.746 458.545 107.031 435.985C94.3159 413.426 82.0109 389.637 81.6007 367.897C81.1905 346.159 58.6314 354.362 54.5297 331.803C50.4281 309.244 31.9705 294.478 40.1739 287.095C38.5332 280.395 36.8105 266.833 43.045 266.177C50.8382 265.356 45.0959 254.281 46.7366 248.128C48.3772 241.976 48.3772 232.132 44.6857 234.594C40.9942 237.054 38.9434 241.156 38.9434 237.875C38.9434 234.594 31.1502 225.98 31.1502 222.289C31.1502 218.597 33.6113 205.881 29.0994 206.292C24.5875 206.702 24.1774 195.628 23.7672 190.706C23.357 185.783 18.8452 198.498 17.2046 189.475C15.5638 180.451 15.5638 167.326 20.0757 159.943C23.6851 154.037 29.4953 137.52 31.9491 130L154.61 20.0395ZM154.61 20.0395C102.391 41.8582 59.1457 80.8699 31.9491 130L154.61 20.0395ZM154.61 20.0395C161.041 17.3525 167.609 14.9262 174.298 12.7739L154.61 20.0395ZM31.9491 130C12.0986 165.86 0.797852 207.111 0.797852 251C0.797852 384.78 105.792 494.037 237.874 500.863L31.9491 130ZM174.298 12.7739C198.469 4.99779 224.244 0.798096 251 0.798096C259.428 0.798096 267.757 1.21476 275.97 2.02859L174.298 12.7739ZM174.298 12.7739C172.658 18.2158 169.869 29.5098 171.838 31.1504C174.298 33.2013 172.658 31.1504 175.529 29.0996C178.401 27.0488 181.271 35.2521 182.912 32.7911C184.553 30.3301 184.143 20.4862 186.193 22.5369C188.244 24.5878 191.526 30.3301 192.756 29.0996C193.986 27.8691 184.143 16.7946 195.217 16.7946C206.291 16.7946 214.085 15.1539 208.343 25.8183C202.6 36.4826 210.393 45.0961 216.546 42.225C222.699 39.3538 234.183 20.8963 245.668 20.8963C257.152 20.8963 261.664 37.7131 269.457 36.4826C277.251 35.2521 280.121 31.5606 277.661 28.6894C275.2 25.8183 256.742 27.8691 260.433 22.1268C264.125 16.3844 278.481 25.4081 280.121 23.7674C281.762 22.1268 255.823 4.4896 275.97 2.02859L174.298 12.7739ZM275.97 2.02859C292.51 3.66745 308.577 6.91693 324.009 11.618L275.97 2.02859ZM324.009 11.618C333.307 16.8983 349.604 27.4589 340.416 27.4589C328.932 27.4589 316.217 38.1233 322.779 40.5843C329.341 43.0453 346.159 61.5028 340.416 64.374C334.674 67.2452 339.186 74.6282 334.674 74.218C330.162 73.8078 318.677 76.2688 324.009 77.0892C329.341 77.9095 346.569 91.8548 341.647 94.7264C336.724 97.5979 320.318 84.0623 319.087 91.8548C317.857 99.6482 322.779 106.211 320.318 106.211C317.857 106.211 322.779 111.133 322.779 115.645C322.779 120.157 331.803 116.875 331.803 120.157C331.803 123.438 337.545 127.54 333.443 130C329.341 132.462 324.009 135.332 322.779 150.099C321.549 164.865 314.166 151.329 308.833 168.556C303.501 185.783 294.888 185.373 301.861 198.088C308.834 210.803 294.888 209.163 301.861 227.621C308.834 246.078 330.982 255.922 338.776 266.996C346.569 278.071 345.748 264.125 359.284 264.125C372.82 264.125 383.894 266.177 383.484 255.101C383.074 244.027 389.636 256.742 397.43 257.563C405.222 258.383 395.379 265.766 403.172 265.766C410.965 265.766 415.067 258.793 415.067 268.637C415.067 278.482 410.554 293.657 417.938 300.63C425.321 307.603 424.5 312.525 423.27 328.112C422.04 343.698 412.195 353.952 415.067 374.46C417.937 394.969 409.324 379.382 411.375 401.531C413.426 423.68 397.43 421.63 407.684 421.63C417.937 421.63 436.395 408.094 442.958 393.738C449.52 379.382 466.748 376.921 466.748 365.847C466.748 354.772 486.025 339.596 486.025 322.78C486.025 305.962 493.819 287.915 493.819 268.637C493.819 249.359 498.715 233.363 497.293 206.702L324.009 11.618ZM324.009 11.618C362.084 23.2155 396.308 43.6477 424.293 70.5265L324.009 11.618ZM497.293 206.702C499.861 221.08 501.202 235.883 501.202 251C501.202 364.984 424.981 461.166 320.728 491.357L497.293 206.702ZM497.293 206.702C493.799 187.151 488.036 168.386 480.283 150.692L497.293 206.702ZM237.874 500.863C242.221 501.089 246.597 501.202 251 501.202C275.199 501.202 298.595 497.767 320.728 491.357L237.874 500.863ZM237.874 500.863C240.609 497.969 249.441 492.178 262.895 492.178C279.711 492.178 300.63 485.616 307.603 490.538C313.181 494.475 318.677 492.725 320.728 491.357L237.874 500.863ZM471.394 132.462C469.299 131.505 466.009 130.821 469.619 135.743C473.229 140.665 478.233 147.76 480.283 150.692L471.394 132.462ZM471.394 132.462C474.595 138.399 477.561 144.479 480.283 150.692L471.394 132.462ZM471.394 132.462C466.408 123.209 460.856 114.307 454.784 105.801L471.394 132.462ZM454.784 105.801C451.252 105.528 444.188 103.586 444.188 98.0073C444.188 91.0352 429.013 81.6009 428.602 79.14C428.274 77.1712 425.593 72.5773 424.293 70.5265L454.784 105.801ZM454.784 105.801C445.725 93.1094 435.51 81.3001 424.293 70.5265L454.784 105.801ZM46.3264 169.377C47.5569 167.599 51.0844 164.701 55.3501 167.326C60.6822 170.607 59.4517 178.811 65.1941 179.631C70.9364 180.451 68.8856 182.912 63.5534 182.912C58.2212 182.912 64.3737 180.451 62.7331 180.451C61.0924 180.451 54.9399 173.068 54.5297 170.607C54.1196 168.146 43.045 174.299 46.3264 169.377ZM71.7568 184.553C72.5771 189.065 71.7568 190.706 68.4754 190.706C65.1941 190.706 72.9873 193.166 78.3194 192.756C83.6518 192.346 84.4722 192.346 84.4722 191.116C84.4722 189.885 71.4806 181.271 71.7568 184.553ZM87.7532 193.166C91.8546 192.756 94.3159 193.576 92.2648 195.628C90.2145 197.679 84.062 193.576 87.7532 193.166ZM58.2212 188.244C59.7977 188.529 61.0924 192.346 58.2212 192.346C55.3501 192.346 55.3501 189.885 56.1704 189.065C56.8266 188.409 57.3723 188.092 58.2212 188.244ZM457.724 147.228C464.697 141.486 470.029 164.045 473.31 168.556C476.592 173.068 484.795 181.682 486.435 190.706C488.076 199.729 491.358 206.702 488.897 204.651C486.435 202.6 482.334 191.116 478.643 187.014C474.951 182.912 475.361 175.939 471.67 171.428C467.978 166.915 465.107 159.533 461.415 154.61C457.724 149.689 455.263 150.099 457.724 147.228ZM418.758 105.801C427.372 116.466 430.242 116.466 433.114 114.414C435.985 112.363 441.728 120.567 442.137 113.184C442.547 105.801 443.778 124.668 446.239 124.668C448.7 124.668 445.419 138.614 440.907 136.973C436.395 135.333 426.962 127.54 422.86 129.59C418.758 131.641 425.321 132.052 422.86 138.614C420.399 145.177 413.016 145.177 410.965 138.614C408.914 132.052 401.941 135.333 397.43 132.462C392.917 129.59 392.097 133.282 391.277 124.668C390.457 116.055 389.226 116.875 383.484 116.875C377.742 116.875 365.026 115.235 359.284 118.926C353.542 122.618 346.979 125.489 342.877 124.668C338.776 123.848 342.467 120.567 349.44 116.875C356.413 113.184 370.358 104.57 359.284 107.031C348.209 109.493 348.619 99.6482 353.952 99.238C359.284 98.8278 374.87 98.4175 374.87 105.801C374.87 113.184 373.639 101.289 380.202 102.11C386.765 102.93 386.355 114.414 391.277 114.414C396.199 114.414 402.762 112.363 395.789 105.801C388.816 99.238 362.565 89.3943 365.026 86.1126C367.487 82.8316 382.663 88.9841 392.097 95.5468C401.531 102.11 401.121 113.184 408.504 113.184C415.887 113.184 401.531 100.879 408.094 100.058C414.657 99.238 423.27 100.058 418.758 96.7775C414.246 93.4957 404.402 79.14 408.504 79.14C412.605 79.14 418.758 87.7534 418.758 84.4725C418.758 81.1907 410.145 76.2688 413.836 74.218C417.527 72.1672 438.446 93.9059 434.755 94.7264C431.063 95.5468 422.86 90.2147 422.86 94.7264C422.86 99.238 422.04 107.852 418.758 105.801ZM336.724 44.686C346.159 54.53 352.721 52.069 359.284 53.2995C365.847 54.53 367.077 43.0453 359.284 40.5843C351.491 38.1233 353.476 49.1978 346.159 47.9673C340.305 46.9829 337.43 45.3696 336.724 44.686ZM305.962 53.2995C300.302 53.1189 296.939 67.6553 303.912 67.6553C310.884 67.6553 316.627 65.6045 312.935 59.452C309.982 54.53 309.592 53.4153 305.962 53.2995ZM309.654 42.6351C307.193 45.3695 303.009 50.8385 305.962 50.8385C309.654 50.8385 312.935 50.0181 312.935 53.2995C312.935 56.5808 312.935 59.452 316.627 59.452C320.318 59.452 320.318 62.3232 320.318 66.0147C320.318 69.7062 326.06 68.8858 328.522 68.8858C330.982 68.8858 336.314 61.913 330.162 60.6825C324.009 59.452 325.65 53.2995 320.318 53.2995C314.986 53.2995 315.396 47.147 313.755 47.147C312.442 47.147 310.474 44.139 309.654 42.6351ZM157.482 76.679C164.044 72.5773 173.068 63.9638 177.99 64.374C182.912 64.7842 170.607 71.3468 174.298 77.9095C177.99 84.4725 170.607 77.9095 165.275 77.9095C159.943 77.9095 153.38 79.5152 157.482 76.679Z" stroke="#C4C4C4" stroke-width="0.798092"/>
<path d="M69.4714 263.568C71.1076 263.568 72.434 262.241 72.434 260.605C72.434 258.969 71.1076 257.642 69.4714 257.642C67.8352 257.642 66.5088 258.969 66.5088 260.605C66.5088 262.241 67.8352 263.568 69.4714 263.568Z" stroke="#FF6F43" stroke-width="0.798092"/>
<path d="M66.5895 240.516C68.2257 240.516 69.5521 239.19 69.5521 237.554C69.5521 235.918 68.2257 234.591 66.5895 234.591C64.9533 234.591 63.627 235.918 63.627 237.554C63.627 239.19 64.9533 240.516 66.5895 240.516Z" stroke="#FF6F43" stroke-width="0.798092"/>
<path d="M163.597 355.772C165.234 355.772 166.56 354.446 166.56 352.809C166.56 351.173 165.234 349.847 163.597 349.847C161.961 349.847 160.635 351.173 160.635 352.809C160.635 354.446 161.961 355.772 163.597 355.772Z" stroke="#FF6F43" stroke-width="0.798092"/>
<path d="M129.02 396.112C130.656 396.112 131.983 394.785 131.983 393.149C131.983 391.513 130.656 390.186 129.02 390.186C127.384 390.186 126.058 391.513 126.058 393.149C126.058 394.785 127.384 396.112 129.02 396.112Z" stroke="#FF6F43" stroke-width="0.798092"/>
<path d="M95.405 89.7224C97.0412 89.7224 98.3676 88.396 98.3676 86.7598C98.3676 85.1236 97.0412 83.7972 95.405 83.7972C93.7688 83.7972 92.4424 85.1236 92.4424 86.7598C92.4424 88.396 93.7688 89.7224 95.405 89.7224Z" stroke="#FF6F43" stroke-width="0.798092"/>
<path d="M125.178 76.276C126.815 76.276 128.141 74.9496 128.141 73.3134C128.141 71.6772 126.815 70.3508 125.178 70.3508C123.542 70.3508 122.216 71.6772 122.216 73.3134C122.216 74.9496 123.542 76.276 125.178 76.276Z" stroke="#FF6F43" stroke-width="0.798092"/>
<path d="M137.665 80.1178C139.301 80.1178 140.627 78.7914 140.627 77.1552C140.627 75.519 139.301 74.1926 137.665 74.1926C136.029 74.1926 134.702 75.519 134.702 77.1552C134.702 78.7914 136.029 80.1178 137.665 80.1178Z" stroke="#FF6F43" stroke-width="0.798092"/>
<path d="M109.811 98.3665C111.447 98.3665 112.774 97.0401 112.774 95.4039C112.774 93.7677 111.447 92.4413 109.811 92.4413C108.175 92.4413 106.849 93.7677 106.849 95.4039C106.849 97.0401 108.175 98.3665 109.811 98.3665Z" stroke="#FF6F43" stroke-width="0.798092"/>
<path d="M95.405 105.09C97.0412 105.09 98.3676 103.764 98.3676 102.128C98.3676 100.492 97.0412 99.1653 95.405 99.1653C93.7688 99.1653 92.4424 100.492 92.4424 102.128C92.4424 103.764 93.7688 105.09 95.405 105.09Z" stroke="#FF6F43" stroke-width="0.798092"/>
<path d="M40.6579 132.944C42.2941 132.944 43.6205 131.617 43.6205 129.981C43.6205 128.345 42.2941 127.019 40.6579 127.019C39.0217 127.019 37.6953 128.345 37.6953 129.981C37.6953 131.617 39.0217 132.944 40.6579 132.944Z" stroke="#FF6F43" stroke-width="0.798092"/>
<path d="M53.1442 111.814C54.7804 111.814 56.1068 110.487 56.1068 108.851C56.1068 107.215 54.7804 105.888 53.1442 105.888C51.508 105.888 50.1816 107.215 50.1816 108.851C50.1816 110.487 51.508 111.814 53.1442 111.814Z" stroke="#FF6F43" stroke-width="0.798092"/>
<path d="M80.9968 80.1178C82.633 80.1178 83.9594 78.7914 83.9594 77.1552C83.9594 75.519 82.633 74.1926 80.9968 74.1926C79.3606 74.1926 78.0342 75.519 78.0342 77.1552C78.0342 78.7914 79.3606 80.1178 80.9968 80.1178Z" stroke="#FF6F43" stroke-width="0.798092"/>
<path d="M217.384 11.9247C219.021 11.9247 220.347 10.5983 220.347 8.9621C220.347 7.32591 219.021 5.99951 217.384 5.99951C215.748 5.99951 214.422 7.32591 214.422 8.9621C214.422 10.5983 215.748 11.9247 217.384 11.9247Z" stroke="#FF6F43" stroke-width="0.798092"/>
<path d="M341.284 176.165C342.92 176.165 344.246 174.838 344.246 173.202C344.246 171.566 342.92 170.239 341.284 170.239C339.648 170.239 338.321 171.566 338.321 173.202C338.321 174.838 339.648 176.165 341.284 176.165Z" stroke="#FF6F43" stroke-width="0.798092"/>
<path d="M318.233 191.532C319.869 191.532 321.196 190.205 321.196 188.569C321.196 186.933 319.869 185.607 318.233 185.607C316.597 185.607 315.271 186.933 315.271 188.569C315.271 190.205 316.597 191.532 318.233 191.532Z" stroke="#FF6F43" stroke-width="0.798092"/>
<path d="M204.898 191.532C206.534 191.532 207.861 190.205 207.861 188.569C207.861 186.933 206.534 185.607 204.898 185.607C203.262 185.607 201.936 186.933 201.936 188.569C201.936 190.205 203.262 191.532 204.898 191.532Z" stroke="#FF6F43" stroke-width="0.798092"/>
<path d="M348.008 79.1574C349.644 79.1574 350.97 77.831 350.97 76.1948C350.97 74.5586 349.644 73.2322 348.008 73.2322C346.371 73.2322 345.045 74.5586 345.045 76.1948C345.045 77.831 346.371 79.1574 348.008 79.1574Z" stroke="#FF6F43" stroke-width="0.798092"/>
<path d="M469.987 251.081C471.623 251.081 472.95 249.755 472.95 248.119C472.95 246.483 471.623 245.156 469.987 245.156C468.351 245.156 467.024 246.483 467.024 248.119C467.024 249.755 468.351 251.081 469.987 251.081Z" stroke="#FF6F43" stroke-width="0.798092"/>
<path d="M444.054 317.353C445.691 317.353 447.017 316.027 447.017 314.391C447.017 312.755 445.691 311.428 444.054 311.428C442.418 311.428 441.092 312.755 441.092 314.391C441.092 316.027 442.418 317.353 444.054 317.353Z" stroke="#FF6F43" stroke-width="0.798092"/>
<path d="M437.33 389.388C438.966 389.388 440.292 388.062 440.292 386.426C440.292 384.79 438.966 383.463 437.33 383.463C435.694 383.463 434.367 384.79 434.367 386.426C434.367 388.062 435.694 389.388 437.33 389.388Z" stroke="#FF6F43" stroke-width="0.798092"/>
<path d="M455.581 130.062C457.217 130.062 458.543 128.736 458.543 127.099C458.543 125.463 457.217 124.137 455.581 124.137C453.945 124.137 452.618 125.463 452.618 127.099C452.618 128.736 453.945 130.062 455.581 130.062Z" stroke="#FF6F43" stroke-width="0.798092"/>
</svg>
