<svg width="368" height="368" viewBox="0 0 368 368" fill="none" xmlns="http://www.w3.org/2000/svg">
<path d="M113.34 14.6904C112.638 17.5056 110.032 23.1361 105.222 23.1361C99.2078 23.1361 91.3903 30.6531 93.1946 31.2545C94.9983 31.8558 90.7888 36.6667 93.1946 36.366C95.5998 36.0654 103.418 26.4436 101.914 30.3524C100.411 34.2613 87.4815 49.596 91.3903 45.6871C95.299 41.7783 113.039 32.1565 111.235 31.2545C109.431 30.3524 116.648 22.2341 119.354 22.2341C122.06 22.2341 123.262 29.4504 120.256 30.3524C117.249 31.2545 127.773 29.4504 127.773 30.3524C127.773 31.2545 127.171 43.8831 129.577 43.8831C131.982 43.8831 111.837 54.4069 110.032 50.7987C108.229 47.1905 100.411 60.7212 105.222 59.819C110.032 58.9169 113.34 56.5116 113.34 58.6162C113.34 60.7212 98.3062 66.4343 97.7048 65.8328C97.2239 65.3513 99.1077 63.0263 100.11 61.9241C97.304 62.3248 91.2703 63.7881 89.5866 66.4343C87.4815 69.7416 75.7553 77.5591 73.3495 77.5591C70.9443 77.5591 66.7349 90.1875 59.8189 90.1875C52.9033 90.1875 46.5891 116.949 43.5822 116.648C40.5754 116.347 46.2883 106.124 45.9877 102.516C45.687 98.9078 42.3795 103.117 42.3795 100.712C42.3795 98.3063 37.5686 101.614 35.7645 100.712C34.3213 99.9901 33.76 98.0056 33.6598 97.1035C29.4503 102.315 20.9711 113.641 20.7305 117.249C20.4299 121.759 15.0176 134.087 18.0244 133.486C21.0312 132.884 21.9332 133.486 22.5346 132.283C23.136 131.081 25.2407 125.067 27.0448 125.067C28.8489 125.067 30.653 124.465 28.8489 128.976C27.0448 133.486 21.0312 142.807 23.136 143.408C25.2407 144.01 29.4503 144.31 29.4503 148.52C29.4503 152.729 25.5414 160.246 26.4435 162.953C27.3455 165.659 29.1496 170.169 30.653 169.567C32.1564 168.966 33.3591 167.162 35.4639 168.665C37.5686 170.169 37.2679 173.777 38.7714 171.973C40.2747 170.169 39.9741 165.057 42.6802 164.756C45.3863 164.456 47.7918 160.246 50.1972 160.848C52.6027 161.449 46.8897 165.659 48.9945 165.959C51.0993 166.26 52.6027 162.051 53.8054 162.351C55.0081 162.652 53.5047 165.659 55.6094 165.659C57.7142 165.659 55.3088 168.665 57.4135 168.665C59.5182 168.665 67.9372 161.75 73.3495 168.665C78.7619 175.581 79.664 187.909 86.5794 187.909C93.4953 187.909 102.516 191.818 104.62 195.726C106.725 199.636 107.627 202.943 110.634 204.747C113.641 206.551 110.634 211.663 113.641 213.166C116.648 214.669 119.654 215.872 125.969 219.781C132.283 223.69 131.982 221.585 136.191 221.886C140.402 222.187 143.107 222.487 146.114 226.396C149.121 230.305 152.128 232.109 154.834 230.906C157.54 229.703 160.246 241.13 155.134 246.241C150.023 251.352 143.408 254.359 144.01 258.87C144.611 263.38 146.415 273.903 141.303 279.616C136.191 285.329 131.08 285.931 123.563 288.937C116.046 291.944 122.661 295.553 119.354 300.063C116.046 304.573 111.536 308.482 107.327 310.285C103.117 312.09 108.229 320.208 106.725 321.11C105.222 322.012 99.2078 318.104 98.6069 319.607C98.0055 321.11 101.614 327.425 98.6069 328.026C95.5998 328.627 96.2012 323.817 94.9983 325.019C93.796 326.222 87.7822 336.144 78.4611 319.607C69.14 303.069 60.1196 285.63 59.8189 269.694C59.5182 253.758 42.9809 259.771 39.9741 243.234C36.9673 226.697 23.4366 215.872 29.4503 210.46C28.2476 205.549 26.9847 195.606 31.555 195.125C37.268 194.524 33.0584 186.405 34.2612 181.895C35.4639 177.385 35.4639 170.169 32.7578 171.973C30.0516 173.777 28.5482 176.784 28.5482 174.378C28.5482 171.973 22.8353 165.659 22.8353 162.953C22.8353 160.246 24.6394 150.925 21.3319 151.226C18.0244 151.527 17.7238 143.408 17.423 139.8C17.1224 136.192 13.8149 145.513 12.6122 138.898C11.4094 132.283 11.4094 122.661 14.7169 117.249C17.3629 112.919 21.6221 100.812 23.4209 95.2992L113.34 14.6904ZM113.34 14.6904C75.0596 30.6849 43.3579 59.2831 23.4209 95.2992L113.34 14.6904ZM113.34 14.6904C118.054 12.7206 122.869 10.942 127.773 9.36419L113.34 14.6904ZM23.4209 95.2992C8.86917 121.587 0.584961 151.826 0.584961 184C0.584961 282.07 77.5531 362.163 174.378 367.167L23.4209 95.2992ZM127.773 9.36419C145.492 3.66375 164.386 0.585083 184 0.585083C190.178 0.585083 196.284 0.890523 202.305 1.48712L127.773 9.36419ZM127.773 9.36419C126.57 13.3535 124.525 21.6327 125.969 22.8354C127.773 24.3388 126.57 22.8354 128.675 21.332C130.78 19.8286 132.884 25.8422 134.087 24.0381C135.29 22.2341 134.989 15.0178 136.492 16.5211C137.996 18.0245 140.402 22.2341 141.303 21.332C142.205 20.43 134.989 12.3116 143.107 12.3116C151.226 12.3116 156.939 11.1089 152.729 18.9266C148.52 26.7443 154.232 33.0585 158.743 30.9538C163.253 28.849 171.672 15.3184 180.091 15.3184C188.51 15.3184 191.817 27.6463 197.53 26.7443C203.244 25.8422 205.348 23.1361 203.544 21.0313C201.74 18.9266 188.209 20.43 190.915 16.2205C193.622 12.0109 204.146 18.6259 205.348 17.4232C206.551 16.2205 187.536 3.29121 202.305 1.48712L127.773 9.36419ZM202.305 1.48712C214.43 2.68852 226.208 5.07061 237.521 8.5168L202.305 1.48712ZM237.521 8.5168C244.337 12.3876 256.284 20.1293 249.548 20.1293C241.129 20.1293 231.808 27.947 236.619 29.751C241.43 31.5551 253.758 45.0858 249.548 47.1905C245.339 49.2953 248.646 54.7075 245.339 54.4069C242.031 54.1061 233.612 55.9102 237.521 56.5116C241.43 57.113 254.059 67.3358 250.451 69.4409C246.842 71.5459 234.815 61.6234 233.913 67.3358C233.011 73.0489 236.619 77.8598 234.815 77.8598C233.011 77.8598 236.619 81.4679 236.619 84.7758C236.619 88.0831 243.234 85.6773 243.234 88.0831C243.234 90.4882 247.443 93.4954 244.437 95.2992C241.43 97.1035 237.521 99.2079 236.619 110.033C235.717 120.857 230.305 110.935 226.396 123.563C222.487 136.192 216.173 135.891 221.284 145.212C226.396 154.533 216.173 153.331 221.284 166.861C226.396 180.392 242.632 187.608 248.345 195.726C254.059 203.845 253.457 193.622 263.38 193.622C273.302 193.622 281.42 195.125 281.12 187.007C280.819 178.888 285.63 188.209 291.343 188.811C297.055 189.412 289.839 194.825 295.552 194.825C301.265 194.825 304.272 189.713 304.272 196.929C304.272 204.146 300.964 215.271 306.377 220.382C311.789 225.494 311.187 229.102 310.285 240.528C309.384 251.954 302.167 259.471 304.272 274.505C306.377 289.539 300.063 278.113 301.566 294.35C303.069 310.586 291.343 309.083 298.86 309.083C306.377 309.083 319.907 299.161 324.718 288.637C329.529 278.113 342.158 276.309 342.158 268.191C342.158 260.072 356.289 248.947 356.289 236.619C356.289 224.291 362.003 211.061 362.003 196.929C362.003 182.797 365.592 171.071 364.549 151.527L237.521 8.5168ZM237.521 8.5168C265.432 17.0186 290.52 31.9968 311.035 51.7007L237.521 8.5168ZM364.549 151.527C366.432 162.067 367.415 172.918 367.415 184C367.415 267.558 311.54 338.066 235.116 360.198L364.549 151.527ZM364.549 151.527C361.988 137.194 357.763 123.439 352.08 110.467L364.549 151.527ZM174.378 367.167C177.564 367.332 180.773 367.415 184 367.415C201.739 367.415 218.89 364.897 235.116 360.198L174.378 367.167ZM174.378 367.167C176.382 365.045 182.857 360.8 192.72 360.8C205.047 360.8 220.382 355.989 225.494 359.597C229.583 362.484 233.612 361.201 235.116 360.198L174.378 367.167ZM345.564 97.1035C344.028 96.402 341.616 95.9006 344.262 99.5086C346.909 103.117 350.577 108.318 352.08 110.467L345.564 97.1035ZM345.564 97.1035C347.91 101.456 350.085 105.913 352.08 110.467L345.564 97.1035ZM345.564 97.1035C341.909 90.3209 337.839 83.7946 333.387 77.5591L345.564 97.1035ZM333.387 77.5591C330.799 77.359 325.62 75.9356 325.62 71.846C325.62 66.735 314.495 59.819 314.195 58.015C313.954 56.5717 311.988 53.2041 311.035 51.7007L333.387 77.5591ZM333.387 77.5591C326.746 68.2555 319.258 59.5985 311.035 51.7007L333.387 77.5591ZM33.9605 124.165C34.8625 122.862 37.4484 120.737 40.5754 122.661C44.4843 125.067 43.5822 131.081 47.7918 131.681C52.0013 132.283 50.4979 134.087 46.5891 134.087C42.6802 134.087 47.1904 132.283 45.9877 132.283C44.785 132.283 40.2747 126.871 39.9741 125.067C39.6734 123.262 31.555 127.773 33.9605 124.165ZM52.6027 135.29C53.204 138.597 52.6027 139.8 50.1972 139.8C47.7918 139.8 53.5047 141.604 57.4135 141.303C61.3225 141.003 61.924 141.003 61.924 140.101C61.924 139.199 52.4002 132.884 52.6027 135.29ZM64.3291 141.604C67.3357 141.303 69.14 141.905 67.6364 143.408C66.1334 144.912 61.6232 141.905 64.3291 141.604ZM42.6802 137.996C43.8358 138.204 44.785 141.003 42.6802 141.003C40.5754 141.003 40.5754 139.199 41.1768 138.597C41.6579 138.116 42.0579 137.884 42.6802 137.996ZM335.543 107.928C340.654 103.719 344.563 120.256 346.968 123.563C349.374 126.871 355.388 133.185 356.59 139.8C357.793 146.415 360.199 151.527 358.394 150.023C356.59 148.52 353.584 140.101 350.878 137.094C348.171 134.087 348.472 128.976 345.766 125.668C343.06 122.36 340.955 116.949 338.249 113.34C335.543 109.732 333.738 110.033 335.543 107.928ZM306.978 77.5591C313.293 85.3772 315.397 85.3772 317.502 83.8736C319.606 82.37 323.816 88.3838 324.117 82.9714C324.417 77.5591 325.32 91.3904 327.124 91.3904C328.928 91.3904 326.522 101.614 323.215 100.411C319.907 99.2079 312.992 93.4954 309.985 94.9984C306.978 96.502 311.789 96.8028 309.985 101.614C308.181 106.425 302.769 106.425 301.265 101.614C299.762 96.8028 294.65 99.2079 291.343 97.1035C288.035 94.9984 287.434 97.7049 286.833 91.3904C286.231 85.0765 285.329 85.6773 281.12 85.6773C276.91 85.6773 267.589 84.475 263.38 87.1809C259.17 89.8874 254.359 91.9918 251.352 91.3904C248.345 90.789 251.051 88.3838 256.163 85.6773C261.275 82.9714 271.498 76.6569 263.38 78.4613C255.261 80.2656 255.562 73.0489 259.471 72.7482C263.38 72.4475 274.805 72.1468 274.805 77.5591C274.805 82.9715 273.903 74.2518 278.714 74.8532C283.525 75.4547 283.224 83.8736 286.833 83.8736C290.441 83.8736 295.252 82.37 290.14 77.5591C285.028 72.7482 265.785 65.5321 267.589 63.1264C269.393 60.7212 280.518 65.2314 287.434 70.0423C294.35 74.8532 294.049 82.9714 299.461 82.9714C304.874 82.9714 294.35 73.9511 299.161 73.3496C303.971 72.7482 310.285 73.3496 306.978 70.9445C303.671 68.5387 296.454 58.015 299.461 58.015C302.468 58.015 306.978 64.3292 306.978 61.9241C306.978 59.5183 300.664 55.9102 303.37 54.4069C306.076 52.9035 321.411 68.8394 318.705 69.4409C315.998 70.0423 309.985 66.1335 309.985 69.4409C309.985 72.7482 309.384 79.0627 306.978 77.5591ZM246.842 32.7579C253.758 39.9742 258.569 38.1701 263.38 39.0721C268.191 39.9742 269.092 31.5551 263.38 29.751C257.667 27.947 259.122 36.0654 253.758 35.1633C249.466 34.4417 247.359 33.259 246.842 32.7579ZM224.291 39.0721C220.142 38.9398 217.676 49.596 222.788 49.596C227.899 49.596 232.109 48.0925 229.403 43.5823C227.238 39.9742 226.952 39.157 224.291 39.0721ZM226.997 31.2545C225.193 33.259 222.126 37.2681 224.291 37.2681C226.997 37.2681 229.403 36.6667 229.403 39.0721C229.403 41.4776 229.403 43.5823 232.109 43.5823C234.815 43.5823 234.815 45.6871 234.815 48.3933C234.815 51.0994 239.024 50.498 240.829 50.498C242.632 50.498 246.541 45.3864 242.031 44.4844C237.521 43.5823 238.724 39.0721 234.815 39.0721C230.906 39.0721 231.207 34.562 230.004 34.562C229.042 34.562 227.598 32.3569 226.997 31.2545ZM115.445 56.2109C120.256 53.2041 126.87 46.8898 130.479 47.1905C134.087 47.4912 125.067 52.3021 127.773 57.113C130.479 61.9241 125.067 57.113 121.158 57.113C117.249 57.113 112.438 58.2901 115.445 56.2109Z" stroke="#0BA759" stroke-width="2"/>
</svg>
