<svg width="361" height="361" viewBox="0 0 361 361" fill="none" xmlns="http://www.w3.org/2000/svg">
<path d="M337.493 269.03C337.493 270.341 336.794 271.543 335.664 272.192L328.006 276.6L180.497 191.432L33.2215 276.607L25.5784 272.192C24.4489 271.543 23.7572 270.348 23.7572 269.045L23.502 91.9755C23.502 90.6641 24.2014 89.4619 25.3309 88.8133L178.807 0.489525C179.937 -0.159147 181.321 -0.159147 182.443 0.489525L187.901 3.64475L187.784 175.403L337.487 261.832L337.493 269.03Z" fill="#D6F5E3"/>
<path d="M337.007 270.864C336.679 271.411 336.235 271.87 335.667 272.19L182.19 360.514C181.06 361.162 179.676 361.162 178.546 360.514L25.5804 272.19C25.0121 271.87 24.5601 271.404 24.2471 270.864L180.499 180.501L337.007 270.864Z" fill="#2944AE"/>
<path d="M337.007 270.864C336.679 271.411 336.235 271.87 335.667 272.19L182.19 360.514C181.06 361.162 179.676 361.162 178.546 360.514L25.5804 272.19C25.0121 271.87 24.5601 271.404 24.2471 270.864L180.499 180.501L337.007 270.864Z" fill="#51D489"/>
<path d="M266.482 230.142V230.31L185.976 276.945C182.587 278.908 178.408 278.908 175.019 276.945L94.5059 230.31V230.229L180.498 180.501L266.482 230.142Z" fill="#0BA759"/>
<path d="M337.007 270.864C336.679 271.411 336.235 271.87 335.666 272.19L182.189 360.514C181.06 361.162 179.675 361.162 178.546 360.514L162.494 351.245L296.218 274.296C298.651 272.897 298.651 269.385 296.225 267.979L162.619 190.847V190.84L180.499 180.501L337.007 270.864Z" fill="#0BA759"/>
<path d="M337.494 269.028C337.494 269.684 337.319 270.311 337.006 270.857L180.498 180.501L180.622 0C181.249 0 181.883 0.160053 182.443 0.487914L335.417 88.8109C336.547 89.4596 337.238 90.6618 337.238 91.9584L337.494 269.028Z" fill="#51D489"/>
<path d="M337.493 269.028C337.493 269.684 337.318 270.311 337.005 270.857L315.066 258.194V102.998L180.606 25.1226L180.628 0C181.255 0 181.881 0.160053 182.442 0.487914L335.416 88.8109C336.546 89.4596 337.237 90.6618 337.237 91.9584L337.493 269.028Z" fill="#0BA759"/>
</svg>
