<svg width="315" height="361" viewBox="0 0 315 361" fill="none" xmlns="http://www.w3.org/2000/svg">
<g clip-path="url(#clip0)">
<path d="M316.222 269C316.222 270.3 315.523 271.5 314.389 272.2L306.623 276.6L157.5 191.4L8.63843 276.6L0.872503 272.2C-0.261846 271.6 -0.959907 270.4 -0.959907 269.1L-1.22168 92C-1.22168 90.7 -0.523619 89.5 0.61073 88.8L155.755 0.499988C156.889 -0.100012 158.285 -0.100012 159.42 0.499988L164.917 3.69999L164.83 175.5L316.134 261.9L316.222 269Z" fill="#D6F5E3"/>
<path d="M315.698 270.9C315.349 271.4 314.913 271.9 314.302 272.2L159.158 360.5C158.023 361.1 156.627 361.1 155.493 360.5L0.872341 272.2C0.261537 271.9 -0.174751 271.4 -0.436523 270.9L157.5 180.5L315.698 270.9Z" fill="#2944AE"/>
<path d="M315.698 270.9C315.349 271.4 314.913 271.9 314.302 272.2L159.158 360.5C158.023 361.1 156.627 361.1 155.493 360.5L0.872341 272.2C0.261537 271.9 -0.174751 271.4 -0.436523 270.9L157.5 180.5L315.698 270.9Z" fill="#51D489"/>
<path d="M244.408 230.1V230.3L162.997 276.9C159.594 278.9 155.318 278.9 151.915 276.9L70.5039 230.3V230.2L157.412 180.5L244.408 230.1Z" fill="#0BA759"/>
<path d="M315.698 270.9C315.349 271.4 314.912 271.9 314.301 272.2L159.157 360.5C158.023 361.1 156.627 361.1 155.493 360.5L139.263 351.2L274.425 274.3C276.868 272.9 276.868 269.4 274.425 268L139.35 190.9L157.412 180.6L315.698 270.9Z" fill="#0BA759"/>
<path d="M316.222 269C316.222 269.7 316.047 270.3 315.698 270.8L157.5 180.4L157.587 0C158.198 0 158.896 0.2 159.42 0.5L314.127 88.8C315.262 89.4 315.96 90.7 315.96 91.9L316.222 269Z" fill="#51D489"/>
<path d="M316.221 269C316.221 269.7 316.047 270.3 315.698 270.8L293.534 258.1V103L157.587 25.1V0C158.198 0 158.896 0.2 159.419 0.5L314.127 88.8C315.261 89.4 315.959 90.7 315.959 91.9L316.221 269Z" fill="#0BA759"/>
<path d="M19.0217 144.7V174C19.0217 176.7 19.458 179.5 22.163 178C24.6935 176.5 25.217 173.6 25.217 170.5V141.1L32.7212 136.8V165.8C32.7212 174.3 29.4926 181.3 21.9885 185.6C14.3971 189.9 11.5176 186.5 11.5176 177.9V148.9L19.0217 144.7Z" fill="#0BA759" fill-opacity="0.25"/>
<path d="M34.4668 135.9L41.7964 131.7V149.2C43.3671 144 46.5083 133.7 48.428 127.9L56.7175 123.1L49.3878 143.7L56.892 164.9L48.6898 169.6L44.0651 155L41.7964 160.8V173.5L34.4668 177.7V135.9Z" fill="#0BA759" fill-opacity="0.25"/>
<path d="M65.792 139.7V147.2L54.8848 153.4V146L65.792 139.7Z" fill="#0BA759" fill-opacity="0.25"/>
<path d="M66.8389 117.3L76.1754 112C84.7267 107.1 88.217 111.3 88.217 125.3C88.217 140.1 84.8139 149 75.9137 154.1L66.8389 159.3V117.3ZM74.343 147.6L75.7392 146.8C79.2295 144.8 80.2765 141.1 80.2765 129.6C80.2765 120 79.3167 117.5 75.8264 119.6L74.343 120.4V147.6Z" fill="#0BA759" fill-opacity="0.25"/>
<path d="M96.8557 100.2V142L89.3516 146.3V104.4L96.8557 100.2Z" fill="#0BA759" fill-opacity="0.25"/>
<path d="M120.502 107.3C120.502 122.6 117.273 131.2 109.071 135.8C101.48 140.1 98.1641 135.3 98.1641 119.9C98.1641 105.1 101.916 96.5 109.42 92.2C117.099 87.8 120.502 92.8 120.502 107.3ZM106.017 115.4C106.017 125.7 106.715 129.6 109.333 128.1C112.038 126.5 112.649 122.2 112.649 111.6C112.649 101.7 112.038 98.3 109.333 99.9C106.715 101.4 106.017 105.6 106.017 115.4Z" fill="#0BA759" fill-opacity="0.25"/>
<path d="M121.637 127.8V86L129.839 81.3C134.813 98.2 135.947 102.3 136.296 104L136.471 103.9C136.121 98.8 136.034 92 136.034 85.4V77.7L142.666 73.9V115.8L134.551 120.4C129.403 101.6 128.443 97.9 128.094 96.3L127.919 96.4C128.181 101.3 128.356 109 128.356 115.8V123.9L121.637 127.8Z" fill="#0BA759" fill-opacity="0.25"/>
<path d="M199.296 129.1L193.799 125.9C193.712 124.7 193.537 123.6 193.537 122.4C192.141 124.8 189.698 124.3 187.08 122.8C180.536 119.1 177.569 111.1 177.569 95.9C177.569 79.3 182.019 76.5 189.175 80.6C198.424 85.9 199.122 95.7 199.209 99L191.705 94.7C191.618 92.6 191.443 89.5 188.913 88.1C186.121 86.5 185.423 90.8 185.423 100.5C185.423 110.6 186.121 114.7 188.826 116.3C191.094 117.6 191.792 115.5 191.792 111V108.3L188.564 106.5V99L199.296 105.1V129.1Z" fill="#F3FFF8" fill-opacity="0.25"/>
<path d="M208.284 117.1V134.2L200.867 130V88.1L211.949 94.4C218.231 98 221.46 103.9 221.46 111.4C221.46 117.2 219.191 118.6 217.272 118.5C219.802 121.4 221.024 124.8 221.024 130.8V132.3C221.024 137 221.198 139.7 221.373 141.6L214.043 137.4C213.694 135.6 213.52 131.8 213.52 127.7V126.3C213.52 121.3 212.734 119.6 209.855 118L208.284 117.1ZM208.284 109.9L210.029 110.9C212.821 112.5 213.956 111.8 213.956 107.7C213.956 104.3 212.996 102.2 210.553 100.8L208.371 99.5V109.9H208.284Z" fill="#F3FFF8" fill-opacity="0.25"/>
<path d="M243.798 133.3C243.798 148.6 240.569 153.4 232.367 148.8C224.776 144.5 221.46 135.8 221.46 120.4C221.46 105.6 225.212 101.3 232.716 105.6C240.482 109.9 243.798 118.8 243.798 133.3ZM229.313 124.8C229.313 135.1 230.011 139.9 232.629 141.3C235.334 142.9 235.945 139.2 235.945 128.6C235.945 118.7 235.334 114.6 232.629 113.1C230.011 111.6 229.313 115.1 229.313 124.8Z" fill="#F3FFF8" fill-opacity="0.25"/>
<path d="M252.262 117.5V146.8C252.262 149.5 252.698 152.9 255.403 154.4C257.933 155.9 258.457 153.5 258.457 150.4V121L266.048 125.3V154.3C266.048 162.8 262.82 166 255.316 161.8C247.724 157.5 244.845 150.8 244.845 142.1V113.1L252.262 117.5Z" fill="#F3FFF8" fill-opacity="0.25"/>
<path d="M267.706 126.3L278.439 132.4C284.111 135.6 288.212 142 288.212 150.7C288.212 159.4 284.547 161.4 278.09 157.8L275.123 156.1V172.4L267.619 168.1V126.3H267.706ZM275.211 148.7L277.13 149.8C279.748 151.3 280.708 150.2 280.708 146.3C280.708 142.4 279.399 140.2 277.305 139L275.211 137.8V148.7Z" fill="#F3FFF8" fill-opacity="0.25"/>
</g>
<defs>
<clipPath id="clip0">
<rect width="315" height="361" fill="white"/>
</clipPath>
</defs>
</svg>
