<svg width="127" height="116" viewBox="0 0 127 116" fill="none" xmlns="http://www.w3.org/2000/svg">
<path d="M0.322193 110.894C2.43805 106.239 4.7655 101.796 7.30454 97.3524C9.4204 93.3322 11.5363 88.4657 14.7101 85.0803C16.4027 83.176 19.9997 85.0803 19.1534 87.6194C19.1534 87.6194 19.1534 87.831 18.9418 87.831C19.365 88.4657 19.7881 88.8892 20.4229 89.5236C20.6345 89.5236 21.0576 89.7349 21.2692 89.7349C21.6924 89.9465 22.1156 90.3696 22.5387 90.7932C33.9644 84.6572 45.3901 78.9443 55.9694 71.7504C59.1432 69.6345 62.1054 67.3067 64.856 64.5564C54.0651 57.7856 41.5815 46.7828 43.909 33.4528C47.0827 15.8911 65.9136 25.4125 72.2615 34.5107C80.0902 45.3017 79.667 54.6115 72.2615 63.9213C79.4554 68.153 87.4954 71.1156 95.3244 70.6921C114.156 70.0573 117.329 53.1304 112.463 38.9541C106.961 41.0699 100.614 41.7047 95.1125 40.4352C85.1679 38.3193 76.2813 23.0851 83.2636 14.1984C90.246 5.52336 108.019 21.8155 111.617 27.1052C112.674 28.5863 113.732 30.279 114.578 31.9717C114.79 31.7601 115.002 31.7601 115.213 31.5485C130.447 21.8155 117.329 8.90875 106.538 2.98432C104.845 2.13797 106.327 -0.189485 108.019 0.445275C119.233 5.31177 132.352 15.2564 124.735 28.5863C122.83 31.7601 120.08 34.5107 116.694 36.415C121.349 48.0523 121.349 61.5942 110.77 70.0573C98.0747 80.2135 81.5709 73.8662 69.2989 67.0955C69.0874 67.3067 69.0874 67.3067 68.8758 67.5186C57.2385 79.5791 40.7348 86.9846 25.9238 94.6017C26.9817 96.0828 28.0396 97.7759 29.0976 99.2566C29.7323 100.315 29.5207 101.796 28.6744 102.642C21.4805 108.778 12.8054 113.433 3.28405 114.914C0.956951 115.549 -0.735738 113.222 0.322193 110.894ZM71.838 55.8814C76.4929 47.8411 70.7801 39.8008 65.2788 33.8763C58.0849 26.0476 46.4476 28.1635 48.7754 40.2239C50.0449 46.3599 55.5462 51.2264 59.9895 55.2466C62.317 57.3625 65.0672 59.4787 68.0294 61.383C69.5109 59.6903 70.7804 57.7856 71.838 55.8814ZM110.347 34.2995C110.347 34.2995 110.347 34.0879 110.347 34.2995C107.385 28.5867 103.153 24.3549 97.8634 20.9695C95.536 19.4884 92.9969 18.2189 90.2463 17.5841C83.0524 15.4683 86.6494 26.894 88.1305 29.8562C92.5738 37.8965 102.73 37.2617 110.347 34.2995ZM23.1735 100.103C23.1735 99.8914 22.9619 99.8914 22.9619 99.6798C22.3272 99.6798 21.6924 99.2563 21.2692 98.4103C20.6345 96.9292 19.7881 95.4481 18.9418 93.9666C18.5186 93.3319 17.2491 92.0623 17.6723 92.0623C17.4607 92.0623 17.2491 91.8508 17.2491 91.6392C15.9796 93.9663 14.2869 96.2941 13.0174 98.6212C11.3247 101.583 9.63199 104.757 7.9393 107.931C13.229 106.451 18.5186 103.7 23.1735 100.103Z" fill="#0BA759"/>
</svg>
