<svg width="42" height="32" viewBox="0 0 42 32" fill="none" xmlns="http://www.w3.org/2000/svg">
<g clip-path="url(#clip0)">
<path fill-rule="evenodd" clip-rule="evenodd" d="M0 0H59.85V2.4625H0V0ZM0 4.925H59.85V7.3875H0V4.925ZM0 9.84375H59.85V12.3125H0V9.84375ZM0 14.7688H59.85V17.2313H0V14.7688ZM0 19.6938H59.85V22.1562H0V19.6938ZM0 24.6125H59.85V27.075H0V24.6125ZM0 29.5375H59.85V32H0V29.5375Z" fill="#BD3D44"/>
<path fill-rule="evenodd" clip-rule="evenodd" d="M0 2.4625H59.85V4.925H0V2.4625ZM0 7.3875H59.85V9.84375H0V7.3875ZM0 12.3062H59.85V14.7687H0V12.3062ZM0 17.2312H59.85V19.6937H0V17.2312ZM0 22.1562H59.85V24.6187H0V22.1562ZM0 27.075H59.85V29.5375H0V27.075Z" fill="white"/>
<path fill-rule="evenodd" clip-rule="evenodd" d="M0 0H23.9388V17.2313H0V0Z" fill="#192F5D"/>
<path fill-rule="evenodd" clip-rule="evenodd" d="M1.99316 0.737499L2.21465 1.41875H2.91602L2.35 1.8375L2.56533 2.525L1.99316 2.1L1.42715 2.51875L1.64248 1.8375L1.07031 1.41875H1.78398L1.99316 0.737499ZM5.98603 0.737499L6.20137 1.41875H6.90889L6.33672 1.8375L6.55205 2.525L5.98603 2.1L5.41387 2.51875L5.6292 1.8375L5.06318 1.41875H5.76455L5.98603 0.737499ZM9.97275 0.737499L10.1942 1.41875H10.8895L10.3234 1.8375L10.5388 2.525L9.9666 2.1L9.40059 2.51875L9.61592 1.8375L9.04375 1.41875H9.75127L9.97275 0.737499ZM13.9656 0.737499L14.181 1.41875H14.8885L14.3163 1.8375L14.5378 2.525L13.9656 2.1L13.3935 2.51875L13.6149 1.8375L13.0428 1.41875H13.7441L13.9656 0.737499ZM17.9523 0.737499L18.1738 1.41875H18.8752L18.3092 1.8375L18.5245 2.525L17.9523 2.1L17.3863 2.51875L17.6017 1.8375L17.0356 1.41875H17.737L17.9523 0.737499ZM21.9452 0.737499L22.1605 1.41875H22.8681L22.2959 1.8375L22.5174 2.525L21.9452 2.1L21.373 2.51875L21.5945 1.8375L21.0224 1.41875H21.7299L21.9452 0.737499ZM3.99268 2.4625L4.20801 3.14375H4.91553L4.34336 3.5625L4.55254 4.24375L3.99883 3.825L3.42666 4.24375L3.62969 3.5625L3.07598 3.14375H3.77734L3.99268 2.4625ZM7.97939 2.4625L8.20088 3.14375H8.90225L8.33008 3.5625L8.55156 4.24375L7.97939 3.825L7.40723 4.24375L7.62871 3.5625L7.05654 3.14375H7.76406L7.97939 2.4625ZM11.9723 2.4625L12.1876 3.14375H12.8951L12.3229 3.5625L12.5383 4.24375L11.9723 3.825L11.4001 4.24375L11.6154 3.5625L11.0494 3.14375H11.7508L11.9723 2.4625ZM15.959 2.4625L16.1805 3.14375H16.8818L16.3097 3.5625L16.5312 4.24375L15.959 3.825L15.393 4.24375L15.6083 3.5625L15.0361 3.14375H15.7498L15.959 2.4625ZM19.9519 2.4625L20.1672 3.14375H20.8747L20.3025 3.5625L20.5179 4.24375L19.9519 3.825L19.3797 4.24375L19.595 3.5625L19.029 3.14375H19.7304L19.9519 2.4625ZM1.99316 4.18125L2.21465 4.875H2.91602L2.35 5.29375L2.56533 5.975L1.99316 5.55L1.42715 5.975L1.64248 5.2875L1.07031 4.86875H1.78398L1.99316 4.18125ZM5.98603 4.18125L6.20137 4.86875H6.90889L6.33672 5.2875L6.55205 5.96875L5.98603 5.54375L5.41387 5.96875L5.6292 5.28125L5.06318 4.8625H5.76455L5.98603 4.18125ZM9.97275 4.18125L10.1942 4.86875H10.8895L10.3234 5.2875L10.5388 5.96875L9.9666 5.54375L9.40059 5.96875L9.61592 5.28125L9.04375 4.8625H9.75127L9.97275 4.18125ZM13.9656 4.18125L14.181 4.86875H14.8885L14.3163 5.2875L14.5378 5.96875L13.9656 5.54375L13.3935 5.96875L13.6149 5.28125L13.0428 4.8625H13.7441L13.9656 4.18125ZM17.9523 4.18125L18.1738 4.86875H18.8752L18.3092 5.2875L18.5245 5.96875L17.9523 5.54375L17.3863 5.96875L17.6017 5.28125L17.0356 4.8625H17.737L17.9523 4.18125ZM21.9452 4.18125L22.1605 4.86875H22.8681L22.2959 5.2875L22.5174 5.96875L21.9452 5.54375L21.373 5.96875L21.5945 5.28125L21.0224 4.8625H21.7299L21.9452 4.18125ZM3.99268 5.90625L4.20801 6.5875H4.91553L4.34336 7.00625L4.55869 7.69375L3.99268 7.26875L3.42051 7.6875L3.63584 7.00625L3.06982 6.5875H3.77119L3.99268 5.90625ZM7.97939 5.90625L8.20088 6.5875H8.90225L8.33008 7.00625L8.55156 7.69375L7.97939 7.26875L7.40723 7.6875L7.62871 7.00625L7.05654 6.5875H7.76406L7.97939 5.90625ZM11.9723 5.90625L12.1876 6.5875H12.8951L12.3229 7.00625L12.5383 7.69375L11.9723 7.26875L11.4001 7.6875L11.6154 7.00625L11.0494 6.5875H11.7508L11.9723 5.90625ZM15.959 5.90625L16.1805 6.5875H16.8818L16.3158 7.00625L16.5312 7.69375L15.959 7.26875L15.393 7.6875L15.6083 7.00625L15.0361 6.5875H15.7498L15.959 5.90625ZM19.9519 5.90625L20.1672 6.5875H20.8747L20.3025 7.00625L20.5179 7.69375L19.9519 7.26875L19.3797 7.6875L19.595 7.00625L19.029 6.5875H19.7304L19.9519 5.90625ZM1.99316 7.63125L2.21465 8.3125H2.91602L2.35 8.73125L2.56533 9.41875L1.99316 8.99374L1.42715 9.4125L1.64248 8.73125L1.07031 8.3125H1.78398L1.99316 7.63125ZM5.98603 7.63125L6.20137 8.3125H6.90889L6.33672 8.73125L6.55205 9.4125L5.98603 8.99374L5.41387 9.4125L5.6292 8.73125L5.06318 8.3125H5.76455L5.98603 7.63125ZM9.97275 7.63125L10.1942 8.3125H10.8895L10.3234 8.73125L10.5388 9.41875L9.9666 8.99374L9.40059 9.4125L9.61592 8.73125L9.04375 8.3125H9.75127L9.97275 7.63125ZM13.9656 7.63125L14.181 8.3125H14.8885L14.3163 8.73125L14.5378 9.41875L13.9656 8.99374L13.3935 9.4125L13.6149 8.73125L13.0428 8.3125H13.7441L13.9656 7.63125ZM17.9523 7.63125L18.1738 8.3125H18.8752L18.3092 8.73125L18.5245 9.41875L17.9523 8.99374L17.3863 9.4125L17.6017 8.73125L17.0356 8.3125H17.737L17.9523 7.63125ZM21.9452 7.63125L22.1605 8.3125H22.8681L22.2959 8.73125L22.5174 9.41875L21.9452 8.99374L21.373 9.4125L21.5945 8.73125L21.0224 8.3125H21.7299L21.9452 7.63125ZM3.99268 9.35625L4.20801 10.0375H4.91553L4.34336 10.4562L4.55869 11.1375L3.99268 10.7125L3.42051 11.1375L3.63584 10.45L3.06982 10.0312H3.77119L3.99268 9.35625ZM7.97939 9.35625L8.20088 10.0375H8.90225L8.33008 10.4562L8.55156 11.1375L7.97939 10.7125L7.40723 11.1375L7.62871 10.45L7.05654 10.0312H7.76406L7.97939 9.35625ZM11.9723 9.35625L12.1876 10.0375H12.8951L12.3229 10.4562L12.5383 11.1375L11.9723 10.7125L11.4001 11.1375L11.6154 10.45L11.0494 10.0312H11.7508L11.9723 9.35625ZM15.959 9.35625L16.1805 10.0375H16.8818L16.3158 10.4562L16.5312 11.1375L15.959 10.7125L15.393 11.1375L15.6083 10.45L15.0361 10.0312H15.7498L15.959 9.35625ZM19.9519 9.35625L20.1672 10.0375H20.8747L20.3025 10.4562L20.5179 11.1375L19.9519 10.7125L19.3797 11.1375L19.595 10.45L19.029 10.0312H19.7304L19.9519 9.35625ZM1.99316 11.075L2.21465 11.7625H2.91602L2.35 12.1812L2.56533 12.8562L1.99316 12.4375L1.42715 12.8562L1.64248 12.175L1.07031 11.7562H1.78398L1.99316 11.075ZM5.98603 11.075L6.20137 11.7625H6.90889L6.33672 12.1812L6.5582 12.8562L5.98603 12.4375L5.41387 12.8562L5.63535 12.175L5.06318 11.7562H5.76455L5.98603 11.075ZM9.97275 11.075L10.1942 11.7625H10.8895L10.3234 12.1812L10.5388 12.8562L9.9666 12.4375L9.40059 12.8562L9.61592 12.175L9.04375 11.7562H9.75127L9.97275 11.075ZM13.9656 11.075L14.181 11.7625H14.8885L14.3163 12.1812L14.5378 12.8562L13.9656 12.4375L13.3935 12.8562L13.6149 12.175L13.0428 11.7562H13.7441L13.9656 11.075ZM17.9523 11.075L18.1738 11.7625H18.8752L18.3092 12.1812L18.5245 12.8562L17.9523 12.4375L17.3863 12.8562L17.6017 12.175L17.0356 11.7562H17.737L17.9523 11.075ZM21.9452 11.075L22.1605 11.7625H22.8681L22.2959 12.1812L22.5174 12.8562L21.9452 12.4375L21.373 12.8562L21.5945 12.175L21.0224 11.7562H21.7299L21.9452 11.075ZM3.99268 12.8L4.20801 13.4812H4.91553L4.34336 13.9L4.55869 14.5875L3.99268 14.1625L3.42051 14.5812L3.63584 13.9L3.06982 13.4812H3.77119L3.99268 12.8ZM7.97939 12.8L8.20088 13.4812H8.90225L8.33008 13.9L8.55156 14.5875L7.97939 14.1625L7.40723 14.5812L7.62871 13.9L7.05654 13.4812H7.76406L7.97939 12.8ZM11.9723 12.8L12.1876 13.4812H12.8951L12.3229 13.9L12.5383 14.5875L11.9723 14.1625L11.4001 14.5812L11.6154 13.9L11.0494 13.4812H11.7508L11.9723 12.8ZM15.959 12.8L16.1805 13.4812H16.8818L16.3158 13.9L16.5312 14.5875L15.959 14.1625L15.393 14.5812L15.6083 13.9L15.0361 13.4812H15.7498L15.959 12.8ZM19.9519 12.8L20.1672 13.4812H20.8747L20.3025 13.9L20.5179 14.5875L19.9519 14.1625L19.3797 14.5812L19.595 13.9L19.029 13.4812H19.7304L19.9519 12.8ZM1.99316 14.525L2.21465 15.2062H2.91602L2.35 15.625L2.56533 16.3062L1.99316 15.8875L1.42715 16.3062L1.64248 15.6187L1.07031 15.2H1.78398L1.99316 14.525ZM5.98603 14.525L6.20137 15.2062H6.90889L6.33672 15.625L6.5582 16.3062L5.98603 15.8875L5.41387 16.3062L5.63535 15.6187L5.06318 15.2H5.76455L5.98603 14.525ZM9.97275 14.525L10.1942 15.2062H10.8895L10.3357 15.625L10.5511 16.3062L9.97891 15.8875L9.41289 16.3062L9.62822 15.6187L9.05605 15.2H9.76357L9.97275 14.525ZM13.9656 14.525L14.181 15.2062H14.8885L14.3163 15.625L14.5378 16.3062L13.9656 15.8875L13.3935 16.3062L13.6149 15.6187L13.0428 15.2H13.7441L13.9656 14.525ZM17.9523 14.525L18.1738 15.2062H18.8752L18.3092 15.625L18.5245 16.3062L17.9523 15.8875L17.3863 16.3062L17.6017 15.6187L17.0356 15.2H17.737L17.9523 14.525ZM21.9452 14.525L22.1605 15.2062H22.8681L22.2959 15.625L22.5174 16.3062L21.9452 15.8875L21.373 16.3062L21.5945 15.6187L21.0224 15.2H21.7299L21.9452 14.525Z" fill="white"/>
</g>
<defs>
<clipPath id="clip0">
<rect width="42" height="32" fill="white"/>
</clipPath>
</defs>
</svg>
