<svg width="272" height="407" viewBox="0 0 272 407" fill="none" xmlns="http://www.w3.org/2000/svg">
<path d="M259.97 84.3134C245.913 86.1592 232.281 88.6973 218.499 91.7686C206.157 94.0902 191.529 95.7773 180.162 101.243C173.833 104.083 176.46 114.581 183.912 114.351C183.912 114.351 184.484 114.509 184.632 113.976C186.051 115.519 186.899 116.903 188.169 118.98C188.021 119.513 188.295 120.739 188.147 121.272C188.423 122.498 189.27 123.882 190.118 125.267C165.545 149.478 142.116 174.007 115.278 195.291C107.34 201.708 98.9786 207.433 89.6234 212.307C78.8818 180.02 57.8908 140.292 20.2487 136.168C-29.4183 131.005 -16.8712 185.628 3.26749 208.457C26.9431 236.288 52.3915 242.2 82.7256 230.505C89.1246 251.819 91.5026 274.314 84.8801 293.738C69.9882 340.749 22.0363 336.061 -12.8584 313.161C-3.29251 300.875 2.86385 285.346 3.28369 270.521C4.52589 243.857 -30.414 210.027 -59.3087 220.972C-87.6318 232.076 -56.0521 289.108 -44.2783 302.145C-41.0171 305.923 -37.184 309.859 -33.2031 313.262C-33.9228 313.637 -34.0711 314.172 -34.7905 314.546C-71.7461 345.665 -97.4367 302.908 -105.892 271.256C-106.994 266.353 -114.318 268.343 -113.788 273.087C-108.487 305.014 -90.7994 345.549 -49.456 336.335C-39.5489 333.912 -30.1928 329.038 -22.6792 321.929C5.50387 342.391 42.0898 352.544 72.3573 332.211C108.679 307.812 103.079 261.436 93.3742 225.415C94.093 225.039 94.093 225.039 94.8136 224.665C135.54 204.361 167.096 168.296 198.039 136.658C201.3 140.436 205.134 144.373 208.394 148.151C210.809 150.545 214.959 151.122 217.837 149.622C239.448 136.081 258.094 117.696 268.758 94.7961C272.102 89.4038 266.999 83.3908 259.97 84.3134ZM61.3005 223.41C36.3209 229.12 18.5961 208.687 6.43958 190.373C-9.67725 166.363 4.18222 138.604 35.1369 153.516C50.8262 161.317 60.1245 178.838 67.8765 193.056C71.9643 200.511 75.7572 209.033 78.8292 217.931C73.2194 220.397 67.1853 222.171 61.3005 223.41ZM-23.953 304.336C-23.953 304.336 -24.5246 304.178 -23.953 304.336C-37.3148 292.585 -45.7862 278.74 -51.2313 262.864C-53.6042 255.885 -55.2574 248.531 -55.0476 241.119C-55.7301 221.392 -27.3784 239.028 -20.4119 244.983C-1.79866 262.216 -10.6203 287.35 -23.953 304.336ZM214.826 133.847C214.254 133.688 214.403 133.155 213.831 132.996C214.275 131.396 213.575 129.477 211.586 127.776C208.028 125.065 204.619 121.82 201.209 118.576C199.79 117.033 197.248 112.88 196.952 113.947C197.1 113.413 196.677 112.721 196.105 112.562C203.281 111.106 210.754 108.582 217.929 107.126C227.117 105.078 236.876 103.189 246.636 101.3C238.935 113.529 227.802 124.806 214.826 133.847Z" fill="#0BA759"/>
</svg>
