<svg width="244" height="434" viewBox="0 0 244 434" fill="none" xmlns="http://www.w3.org/2000/svg">
<path d="M425.756 418.635C419.472 401.561 412.442 385.214 404.702 368.831C398.308 354.038 392.061 336.203 382.007 323.519C376.662 316.399 364.264 322.656 366.659 331.919C366.659 331.919 366.622 332.679 367.332 332.714C365.801 334.926 364.308 336.379 362.068 338.555C361.358 338.521 359.902 339.211 359.192 339.176C357.735 339.868 356.242 341.319 354.748 342.772C317.496 318.857 280.169 296.462 245.94 268.882C235.664 260.76 226.135 251.911 217.389 241.578C254.769 219.006 298.567 181.502 293.09 133.217C285.514 69.586 220.685 100.731 197.801 132.392C169.655 169.895 169.447 203.422 192.66 238.088C167.789 252.122 140.303 261.457 114.116 258.657C51.061 253.303 43.3755 191.954 62.1775 141.801C80.2605 150.303 101.44 153.62 120.116 149.955C153.843 143.974 186.315 90.6751 164.448 57.5992C142.543 25.2836 80.0779 80.9341 67.0866 99.357C63.2791 104.507 59.4356 110.418 56.3008 116.363C55.6281 115.568 54.9172 115.533 54.2456 114.739C4.84665 77.2745 51.1062 33.0308 88.338 13.5005C94.1638 10.7351 89.6026 2.12904 83.8138 4.13403C45.3474 19.7934 -0.394218 53.3915 22.8257 102.539C28.6584 114.256 37.404 124.59 48.4267 131.986C30.7783 173.048 28.411 221.715 62.4179 253.856C103.226 292.426 159.695 272.308 202.042 249.978C202.715 250.772 202.715 250.772 203.388 251.568C240.315 296.809 294.379 326.116 342.728 355.907C338.921 361.057 335.076 366.969 331.268 372.118C328.954 375.818 329.405 381.175 332.096 384.354C355.154 407.579 383.439 425.723 415.118 432.599C422.813 435.26 428.898 427.173 425.756 418.635ZM195.486 209.263C181.278 179.608 201.846 151.645 221.335 131.252C246.834 104.291 285.499 113.794 275.583 156.757C270.251 178.601 250.948 195.192 235.341 208.915C227.164 216.139 217.569 223.296 207.299 229.656C202.626 223.331 198.701 216.279 195.486 209.263ZM70.0884 125.419C70.0884 125.419 70.1254 124.659 70.0884 125.419C81.0222 105.372 95.9577 90.8542 114.292 79.5509C122.358 74.6079 131.096 70.4598 140.434 68.6274C164.934 62.1973 150.871 102.672 145.385 113.076C129.076 141.246 95.1197 137.307 70.0884 125.419ZM350.992 376.126C351.029 375.366 351.738 375.4 351.775 374.64C353.905 374.744 356.108 373.325 357.675 370.354C360.063 365.135 363.161 359.95 366.259 354.764C367.789 352.552 372.27 348.197 370.85 348.128C371.56 348.162 372.307 347.436 372.344 346.676C376.195 355.246 381.466 363.888 385.318 372.458C390.478 383.38 395.601 395.062 400.724 406.746C383.239 400.562 365.977 389.814 350.992 376.126Z" fill="#0BA759"/>
</svg>
