<svg width="154" height="83" viewBox="0 0 154 83" fill="none" xmlns="http://www.w3.org/2000/svg">
<g clip-path="url(#clip0)">
<path d="M77.5893 49.2454V57.0214C77.5893 57.8734 77.8113 58.5274 78.2553 58.9834C78.6993 59.4274 79.3233 59.6494 80.1273 59.6494C80.9433 59.6494 81.5733 59.4274 82.0173 58.9834C82.4613 58.5274 82.6833 57.8734 82.6833 57.0214V49.2454H85.2213V57.0034C85.2213 58.0714 84.9873 58.9774 84.5193 59.7214C84.0633 60.4534 83.4453 61.0054 82.6653 61.3774C81.8973 61.7494 81.0393 61.9354 80.0913 61.9354C79.1553 61.9354 78.3033 61.7494 77.5353 61.3774C76.7793 61.0054 76.1793 60.4534 75.7353 59.7214C75.2913 58.9774 75.0693 58.0714 75.0693 57.0034V49.2454H77.5893ZM94.7481 61.8094L90.1761 56.2114V61.8094H87.6561V49.2454H90.1761V54.8794L94.7481 49.2454H97.7901L92.6061 55.4734L97.9341 61.8094H94.7481ZM107.26 54.3214V56.4454H99.6276V54.3214H107.26ZM114.478 49.2454C115.798 49.2454 116.956 49.5034 117.952 50.0194C118.96 50.5354 119.734 51.2734 120.274 52.2334C120.826 53.1814 121.102 54.2854 121.102 55.5454C121.102 56.8054 120.826 57.9094 120.274 58.8574C119.734 59.7934 118.96 60.5194 117.952 61.0354C116.956 61.5514 115.798 61.8094 114.478 61.8094H110.086V49.2454H114.478ZM114.388 59.6674C115.708 59.6674 116.728 59.3074 117.448 58.5874C118.168 57.8674 118.528 56.8534 118.528 55.5454C118.528 54.2374 118.168 53.2174 117.448 52.4854C116.728 51.7414 115.708 51.3694 114.388 51.3694H112.606V59.6674H114.388ZM125.508 49.2454V61.8094H122.988V49.2454H125.508ZM133.83 61.9354C132.654 61.9354 131.574 61.6594 130.59 61.1074C129.606 60.5554 128.826 59.7934 128.25 58.8214C127.674 57.8374 127.386 56.7274 127.386 55.4914C127.386 54.2674 127.674 53.1694 128.25 52.1974C128.826 51.2134 129.606 50.4454 130.59 49.8934C131.574 49.3414 132.654 49.0654 133.83 49.0654C135.018 49.0654 136.098 49.3414 137.07 49.8934C138.054 50.4454 138.828 51.2134 139.392 52.1974C139.968 53.1694 140.256 54.2674 140.256 55.4914C140.256 56.7274 139.968 57.8374 139.392 58.8214C138.828 59.7934 138.054 60.5554 137.07 61.1074C136.086 61.6594 135.006 61.9354 133.83 61.9354ZM133.83 59.6854C134.586 59.6854 135.252 59.5174 135.828 59.1814C136.404 58.8334 136.854 58.3414 137.178 57.7054C137.502 57.0694 137.664 56.3314 137.664 55.4914C137.664 54.6514 137.502 53.9194 137.178 53.2954C136.854 52.6594 136.404 52.1734 135.828 51.8374C135.252 51.5014 134.586 51.3334 133.83 51.3334C133.074 51.3334 132.402 51.5014 131.814 51.8374C131.238 52.1734 130.788 52.6594 130.464 53.2954C130.14 53.9194 129.978 54.6514 129.978 55.4914C129.978 56.3314 130.14 57.0694 130.464 57.7054C130.788 58.3414 131.238 58.8334 131.814 59.1814C132.402 59.5174 133.074 59.6854 133.83 59.6854ZM152.877 61.8094H150.357L144.651 53.1874V61.8094H142.131V49.2274H144.651L150.357 57.8674V49.2274H152.877V61.8094Z" fill="#1F681B"/>
<path d="M84.2673 72.3353C83.9433 71.7113 83.4933 71.2433 82.9173 70.9313C82.3413 70.6073 81.6753 70.4453 80.9193 70.4453C80.0913 70.4453 79.3533 70.6313 78.7053 71.0033C78.0573 71.3753 77.5473 71.9033 77.1753 72.5873C76.8153 73.2713 76.6353 74.0633 76.6353 74.9633C76.6353 75.8633 76.8153 76.6613 77.1753 77.3573C77.5473 78.0413 78.0573 78.5693 78.7053 78.9413C79.3533 79.3133 80.0913 79.4993 80.9193 79.4993C82.0353 79.4993 82.9413 79.1873 83.6373 78.5633C84.3333 77.9393 84.7593 77.0933 84.9153 76.0253H80.2173V74.3873H87.1113V75.9893C86.9793 76.9613 86.6313 77.8553 86.0673 78.6713C85.5153 79.4873 84.7893 80.1413 83.8893 80.6333C83.0013 81.1133 82.0113 81.3533 80.9193 81.3533C79.7433 81.3533 78.6693 81.0833 77.6973 80.5433C76.7253 79.9913 75.9513 79.2293 75.3753 78.2573C74.8113 77.2853 74.5293 76.1873 74.5293 74.9633C74.5293 73.7393 74.8113 72.6413 75.3753 71.6693C75.9513 70.6973 76.7253 69.9413 77.6973 69.4013C78.6813 68.8493 79.7553 68.5733 80.9193 68.5733C82.2513 68.5733 83.4333 68.9033 84.4653 69.5633C85.5093 70.2113 86.2653 71.1353 86.7333 72.3353H84.2673ZM95.6332 81.2453L92.7532 76.2413H91.1872V81.2453H89.1352V68.7353H93.4552C94.4152 68.7353 95.2252 68.9033 95.8852 69.2393C96.5572 69.5753 97.0552 70.0253 97.3792 70.5893C97.7152 71.1533 97.8832 71.7833 97.8832 72.4793C97.8832 73.2953 97.6432 74.0393 97.1632 74.7113C96.6952 75.3713 95.9692 75.8213 94.9852 76.0613L98.0812 81.2453H95.6332ZM91.1872 74.6033H93.4552C94.2232 74.6033 94.7992 74.4113 95.1832 74.0273C95.5792 73.6433 95.7772 73.1273 95.7772 72.4793C95.7772 71.8313 95.5852 71.3273 95.2012 70.9673C94.8172 70.5953 94.2352 70.4093 93.4552 70.4093H91.1872V74.6033ZM106.214 81.3713C105.05 81.3713 103.976 81.1013 102.992 80.5613C102.02 80.0093 101.246 79.2473 100.67 78.2753C100.106 77.2913 99.8242 76.1873 99.8242 74.9633C99.8242 73.7393 100.106 72.6413 100.67 71.6693C101.246 70.6973 102.02 69.9413 102.992 69.4013C103.976 68.8493 105.05 68.5733 106.214 68.5733C107.39 68.5733 108.464 68.8493 109.436 69.4013C110.42 69.9413 111.194 70.6973 111.758 71.6693C112.322 72.6413 112.604 73.7393 112.604 74.9633C112.604 76.1873 112.322 77.2913 111.758 78.2753C111.194 79.2473 110.42 80.0093 109.436 80.5613C108.464 81.1013 107.39 81.3713 106.214 81.3713ZM106.214 79.5893C107.042 79.5893 107.78 79.4033 108.428 79.0313C109.076 78.6473 109.58 78.1073 109.94 77.4113C110.312 76.7033 110.498 75.8873 110.498 74.9633C110.498 74.0393 110.312 73.2293 109.94 72.5333C109.58 71.8373 109.076 71.3033 108.428 70.9313C107.78 70.5593 107.042 70.3733 106.214 70.3733C105.386 70.3733 104.648 70.5593 104 70.9313C103.352 71.3033 102.842 71.8373 102.47 72.5333C102.11 73.2293 101.93 74.0393 101.93 74.9633C101.93 75.8873 102.11 76.7033 102.47 77.4113C102.842 78.1073 103.352 78.6473 104 79.0313C104.648 79.4033 105.386 79.5893 106.214 79.5893ZM116.657 68.7353V76.7093C116.657 77.6573 116.903 78.3713 117.395 78.8513C117.899 79.3313 118.595 79.5713 119.483 79.5713C120.383 79.5713 121.079 79.3313 121.571 78.8513C122.075 78.3713 122.327 77.6573 122.327 76.7093V68.7353H124.379V76.6733C124.379 77.6933 124.157 78.5573 123.713 79.2653C123.269 79.9733 122.675 80.5013 121.931 80.8493C121.187 81.1973 120.365 81.3713 119.465 81.3713C118.565 81.3713 117.743 81.1973 116.999 80.8493C116.267 80.5013 115.685 79.9733 115.253 79.2653C114.821 78.5573 114.605 77.6933 114.605 76.6733V68.7353H116.657ZM135.799 72.4613C135.799 73.0973 135.649 73.6973 135.349 74.2613C135.049 74.8253 134.569 75.2873 133.909 75.6473C133.249 75.9953 132.403 76.1693 131.371 76.1693H129.103V81.2453H127.051V68.7353H131.371C132.331 68.7353 133.141 68.9033 133.801 69.2393C134.473 69.5633 134.971 70.0073 135.295 70.5713C135.631 71.1353 135.799 71.7653 135.799 72.4613ZM131.371 74.4953C132.151 74.4953 132.733 74.3213 133.117 73.9733C133.501 73.6133 133.693 73.1093 133.693 72.4613C133.693 71.0933 132.919 70.4093 131.371 70.4093H129.103V74.4953H131.371Z" fill="#D9020D"/>
<path d="M35.8496 52.8046L36.099 52.9362V52.8046H35.8496Z" fill="white"/>
<path d="M47.1369 14.9999V46.5292L35.0813 40.1984V51.2461L33.7064 50.5258V30.349L31.0986 31.7204V22.4459L47.1369 14.9999Z" fill="#E0050E"/>
<path d="M35.8496 52.8046L36.099 52.9362V52.8046H35.8496Z" fill="white"/>
<path d="M40.6803 55.3399V75.6587H26.7373V48.0186L30.0793 49.771L31.0975 50.3078L32.6871 51.1459L33.7053 51.6793L35.0802 52.3996L35.8491 52.8048L36.0984 52.9364L37.7885 53.823L40.6803 55.3399Z" fill="#F8C41A"/>
<path d="M50.0381 49.2062V75.6584H41.7021V54.7231L39.9844 53.8227L38.045 52.8045L36.0986 51.7829V41.8849L47.136 47.6824L48.1541 48.2157L50.0381 49.2062Z" fill="#3A9637"/>
<path d="M32.6866 32.0392V49.9926L31.097 49.1579L30.0788 48.6246L25.7186 46.3319V70.204L18.7471 74.1694V39.3604L30.0788 33.4071L31.097 32.8738L32.6866 32.0392Z" fill="#32417E"/>
<path d="M35.8496 52.8046L36.099 52.9362V52.8046H35.8496ZM35.8496 52.8046L36.099 52.9362V52.8046H35.8496ZM35.8496 52.8046L36.099 52.9362V52.8046H35.8496ZM35.8496 52.8046L36.099 52.9362V52.8046H35.8496Z" fill="white"/>
<path fill-rule="evenodd" clip-rule="evenodd" d="M40.6796 55.3397V59.7554L36.8389 60.3164L37.154 53.4869L37.7878 53.8228L40.6796 55.3397Z" fill="#E4B319"/>
<path fill-rule="evenodd" clip-rule="evenodd" d="M31.3962 50.4672L29.2871 53.695L29.6473 49.546L30.0802 49.7746L31.0984 50.3079L31.3962 50.4672Z" fill="#E4B319"/>
<path fill-rule="evenodd" clip-rule="evenodd" d="M27.9771 48.6697L26.7373 51.752V48.0186L27.9771 48.6697Z" fill="#E4B319"/>
<path fill-rule="evenodd" clip-rule="evenodd" d="M30.2179 75.6587H26.7373V74.8725L28.5417 71.1357L30.2179 75.6587Z" fill="#E4B319"/>
<path fill-rule="evenodd" clip-rule="evenodd" d="M40.6797 66.3945V70.1521L36.5688 75.6586H31.0138L29.8467 70.5746L36.8389 60.3165L40.6797 66.3945Z" fill="#E4B319"/>
<path d="M32.6866 42.7198V43.267L18.7471 42.848V39.3605L28.3229 34.3319L32.6866 42.7198Z" fill="#405287"/>
<path d="M32.6872 32.0356V41.234L29.1963 33.8746L30.0794 33.4105L31.0976 32.8772L32.6872 32.0356Z" fill="#405287"/>
<path d="M32.6866 44.0912V44.1362L28.3575 47.7172L25.7186 46.3319V48.1051L18.7471 49.1129V43.5613L32.6866 44.0912Z" fill="#405287"/>
<path d="M25.7194 58.9656V64.5345L20.4033 61.1059L25.7194 58.9656Z" fill="#405287"/>
<path d="M25.7186 48.94V55.8457L18.7471 52.469V49.7885L25.7186 48.94Z" fill="#405287"/>
<path d="M25.7186 65.3899V70.2038L18.7471 74.1692V60.4202L18.8995 60.6383L25.7186 65.3899Z" fill="#405287"/>
<path d="M25.7186 56.6697V58.3112L18.7471 55.1528V53.5528L25.7186 56.6697Z" fill="#405287"/>
<path d="M50.0416 57.9959V61.5907L41.7021 64.7111V57.9959H50.0416Z" fill="#46A33E"/>
<path d="M50.0418 49.2097V53.5734L45.5361 51.1283L49.3699 48.853L50.0418 49.2097Z" fill="#46A33E"/>
<path d="M50.0416 71.4957V75.6585H41.7021V67.2948L50.0416 71.4957Z" fill="#46A33E"/>
<path d="M40.5627 44.2296L36.0986 49.1335V48.9984L37.4978 42.6192L40.5627 44.2296Z" fill="#46A33E"/>
<path d="M47.1349 30.858V37.1784L34.3486 20.9324L34.9062 20.6727L47.1349 30.858Z" fill="#F20A0F"/>
<path d="M39.9333 29.0156L33.7099 30.8234L31.6943 31.4087L31.0986 31.5819V22.8372L35.9091 23.4537L39.9333 29.0156Z" fill="#F20A0F"/>
<path d="M47.135 40.4445V45.622L33.708 38.228V37.2098L47.135 40.4445Z" fill="#F20A0F"/>
<path d="M57.9547 53.629H51.2914V55.3295H57.9547C58.6895 55.3295 59.3942 55.6214 59.9138 56.141C60.4334 56.6606 60.7253 57.3653 60.7253 58.1001V79.0734C60.7253 79.8082 60.4334 80.5129 59.9138 81.0325C59.3942 81.5521 58.6895 81.844 57.9547 81.844H10.5465C9.81168 81.844 9.10698 81.5521 8.58739 81.0325C8.06781 80.5129 7.7759 79.8082 7.7759 79.0734V58.0828C7.7759 57.348 8.06781 56.6432 8.58739 56.1237C9.10698 55.6041 9.81168 55.3122 10.5465 55.3122H17.7431V53.6117H10.5465C9.36585 53.6136 8.2341 54.0834 7.39926 54.9182C6.56442 55.753 6.09461 56.8848 6.09277 58.0654V79.0388C6.09461 80.2194 6.56442 81.3512 7.39926 82.186C8.2341 83.0208 9.36585 83.4907 10.5465 83.4925H57.9547C59.1353 83.4907 60.2671 83.0208 61.1019 82.186C61.9367 81.3512 62.4066 80.2194 62.4084 79.0388V58.0828C62.4066 56.9021 61.9367 55.7704 61.1019 54.9355C60.2671 54.1007 59.1353 53.6309 57.9547 53.629V53.629Z" fill="#1F681B"/>
</g>
<defs>
<clipPath id="clip0">
<rect width="154" height="83" fill="white"/>
</clipPath>
</defs>
</svg>
